<svg width="18" height="16" viewBox="0 0 18 16" fill="none" xmlns="http://www.w3.org/2000/svg">
<path fill-rule="evenodd" clip-rule="evenodd" d="M9 0C11.3869 0 13.6761 0.842855 15.364 2.34315C17.0518 3.84344 18 5.87827 18 8C18 10.1217 17.0518 12.1566 15.364 13.6569C13.6761 15.1571 11.3869 16 9 16C6.61305 16 4.32387 15.1571 2.63604 13.6569C0.948212 12.1566 0 10.1217 0 8C0 5.87827 0.948212 3.84344 2.63604 2.34315C4.32387 0.842855 6.61305 0 9 0V0ZM15.7763 4.92308C14.8883 3.38832 13.3772 2.21097 11.5491 1.62954C12.1638 2.66338 12.6083 3.77108 12.8686 4.92308H15.7763ZM16.5822 8.60923C16.6043 8.40675 16.6154 8.20344 16.6154 8C16.614 7.37543 16.5147 6.75407 16.3205 6.15385H13.0777C13.122 6.56123 13.1538 6.97108 13.1538 7.38462C13.151 8.21151 13.0554 9.0361 12.8686 9.84615H16.3205C16.452 9.44123 16.5392 9.02769 16.5835 8.60923H16.5822ZM11.6875 8.60923L11.6958 8.54646C11.7431 8.16058 11.7676 7.77277 11.7692 7.38462C11.7599 6.97294 11.7248 6.56204 11.664 6.15385H6.336C6.27469 6.562 6.23956 6.97292 6.23077 7.38462C6.23415 8.21328 6.34237 9.03899 6.55338 9.84615H11.4466C11.5532 9.43754 11.6335 9.02523 11.6875 8.60923V8.60923ZM11.4217 4.92308C11.0955 3.62136 10.5068 2.38291 9.684 1.26769C9.45692 1.25046 9.22985 1.23077 9 1.23077C8.85577 1.2314 8.71163 1.23755 8.568 1.24923L8.316 1.26769L8.30769 1.28C7.48928 2.39195 6.90343 3.6261 6.57831 4.92308H11.4217ZM5.13138 4.92308C5.39697 3.77187 5.84743 2.6606 6.46892 1.62338C4.6329 2.20283 3.11464 3.38293 2.22369 4.92308H5.13138V4.92308ZM1.67954 6.15385C1.48554 6.75412 1.38629 7.37545 1.38462 8C1.38629 8.62455 1.48554 9.24588 1.67954 9.84615H5.13138C4.94367 9.03622 4.84811 8.21156 4.84615 7.38462C4.84615 6.97108 4.878 6.56123 4.92231 6.15385H1.67954ZM5.49277 11.0769H2.22508C2.74848 11.9857 3.49577 12.7778 4.4113 13.3943C5.32683 14.0108 6.38702 14.4357 7.51292 14.6375C6.62675 13.5559 5.94445 12.3533 5.49277 11.0769ZM9 14.3311C9.88538 13.3577 10.5775 12.2572 11.0465 11.0769H6.95354C7.42256 12.2572 8.11464 13.3577 9 14.3311ZM12.5072 11.0769C12.0555 12.3533 11.3732 13.5559 10.4871 14.6375C11.6129 14.4356 12.673 14.0105 13.5885 13.3941C14.504 12.7776 15.2514 11.9856 15.7749 11.0769H12.5072V11.0769Z" fill="white"/>
</svg>
