<svg width="230" height="147" viewBox="0 0 230 147" fill="none" xmlns="http://www.w3.org/2000/svg">
<g filter="url(#filter0_i_70_103)">
<path d="M108.49 28.5003C108.675 28.8994 108.734 29.3451 108.661 29.7788C108.588 30.2125 108.385 30.6139 108.08 30.9303C108.038 31.0876 108.036 31.2527 108.072 31.4113C108.109 31.5699 108.184 31.7172 108.29 31.8403C108.645 32.1808 109.101 32.3951 109.59 32.4503C110.31 32.4503 111.11 31.7603 111.53 32.8603C112.94 32.7603 113.99 31.3503 115.53 32.1103C115.91 32.2903 116.67 31.6803 117.29 31.4203C117.25 30.9745 117.25 30.5261 117.29 30.0803C117.65 28.1703 117.98 28.0803 119.49 29.2803C120.09 28.7503 120.33 28.2803 119.59 27.6003C119.04 27.0903 119.14 26.6003 119.94 26.3703C120.525 26.2647 121.116 26.1946 121.71 26.1603L123.95 25.9603V25.4303C123.551 25.2743 123.128 25.1864 122.7 25.1703C121.87 25.433 121.016 25.6139 120.15 25.7103C119.191 25.6299 118.263 25.3287 117.44 24.8303C117 24.5603 117.58 22.1903 118.07 21.8303C118.94 21.1203 119.83 20.4303 121.02 19.5003C120.42 19.3003 119.87 18.9203 119.46 19.0303C118.728 19.2626 118.048 19.6363 117.46 20.1303C116.97 20.5303 116.67 21.1303 116.19 21.6003C115.71 22.0703 114.99 22.3303 114.54 22.8203C113.67 23.7403 113.79 24.3903 114.79 25.1203C114.969 25.2068 115.119 25.3449 115.219 25.5169C115.32 25.6889 115.366 25.887 115.353 26.0857C115.341 26.2845 115.269 26.4749 115.147 26.6324C115.025 26.79 114.859 26.9077 114.67 26.9703C114.337 27.1265 114.053 27.3715 113.85 27.6785C113.647 27.9855 113.533 28.3425 113.52 28.7103C113.44 29.4403 113.44 30.5003 112.14 30.2203C110.54 32.3003 110.59 30.2903 110.14 29.4303C110.06 29.2703 109.99 29.1103 109.9 28.9603C109.45 28.2303 109.13 27.1903 108.48 26.8903C108.04 26.6903 107.13 27.5503 106.41 27.8903C106.009 28.0329 105.568 28.0159 105.179 27.8428C104.79 27.6697 104.483 27.3538 104.32 26.9603C104.016 26.2392 103.801 25.4836 103.68 24.7103C103.667 24.4334 103.714 24.157 103.818 23.8999C103.921 23.6428 104.079 23.411 104.28 23.2203C105.219 22.344 106.349 21.6971 107.58 21.3303C108.48 21.0903 109.23 20.1003 109.92 19.3303C110.92 18.2203 111.82 17.0003 112.65 15.9703L110.81 16.4203C111.24 16.0224 111.705 15.6643 112.2 15.3503C112.73 15.1769 113.276 15.0563 113.83 14.9903C114.35 14.6703 115.26 13.6503 115.94 13.7803C117.15 14.0203 118.04 13.1103 119.2 13.3803C119.74 13.5003 120.44 12.8603 121.32 12.4403L120.86 13.4403C121.34 13.1851 121.861 13.0158 122.4 12.9403C123.289 13.0625 124.168 13.2497 125.03 13.5003L124.72 13.9803C126.62 14.4203 128.5 14.7803 130.34 15.3003C131.379 15.6338 132.383 16.0658 133.34 16.5903C134.14 16.9903 134.19 17.5903 133.34 18.0003C131.74 18.8103 130.1 18.4103 128.47 18.0003C127.974 17.8237 127.444 17.7588 126.92 17.8103L128.39 18.6003C128.39 20.3603 129.47 21.2603 131.2 20.7503L130.04 19.9903L130.15 19.7203L133.15 20.2003L132.61 19.0803C133.202 18.7935 133.81 18.5397 134.43 18.3203C135.089 18.1749 135.757 18.0747 136.43 18.0203C136.218 17.7174 136.062 17.3786 135.97 17.0203C135.949 16.4816 135.982 15.9422 136.07 15.4103L138.33 15.9003V16.3503L137.22 16.7303C138.06 18.0203 138.4 17.9203 139.49 17.0503C140.474 16.4188 141.537 15.9179 142.65 15.5603C143.059 15.4384 143.477 15.3514 143.9 15.3003C144.8 16.7303 146.1 15.3003 147.29 15.4103C147.81 15.4103 148.39 14.6503 148.84 15.6203C149.309 15.5029 149.77 15.3559 150.22 15.1803L147.81 13.4603C149.442 13.6732 151.061 13.9736 152.66 14.3603C154 14.7703 155.19 15.6803 156.73 15.6003C156.23 15.3222 155.813 14.9145 155.525 14.4201C155.236 13.9257 155.086 13.3627 155.09 12.7903C155.564 12.1007 156.121 11.4726 156.75 10.9203C157.369 10.6078 158.056 10.4532 158.75 10.4703C159.273 10.5226 159.787 10.6402 160.28 10.8203L159.53 11.9103L160.1 15.7003L160.64 15.8703L158.28 18.1603C160.01 18.5603 161.41 17.5303 161.63 15.5003C162.4 15.5003 163.38 15.1203 163.45 16.5003C164.34 15.7303 164.14 15.0403 163.04 14.9903C162.34 14.9903 161.64 14.9903 160.87 14.9903C160.78 14.0703 160.69 13.1503 160.59 12.0703L162.14 11.0703V12.4103L163.5 12.6003L162.5 11.7303L164.12 11.9603L164.25 11.6803L163.46 11.1303L163.55 10.8403C164.55 11.1503 165.55 11.4803 166.62 11.7803C167.018 11.8794 167.422 11.9495 167.83 11.9903C167.83 11.9903 167.94 11.6703 167.91 11.6603C167.56 11.4903 167.19 11.3403 166.64 11.1103L166.28 9.93031L171.55 9.48031L170.77 8.65031C173.178 7.48672 175.855 6.99277 178.52 7.22031C179.46 7.19596 180.394 7.05488 181.3 6.80031C181.38 6.80031 181.45 6.6903 181.53 6.6803C182.38 6.57735 183.183 6.22999 183.84 5.6803C184.84 4.9803 186.01 4.15031 187.09 5.76031C187.29 6.07031 187.96 6.0503 188.36 6.1703C189.78 6.08853 191.204 6.11193 192.62 6.2403C193.13 6.3203 193.52 7.24031 193.98 7.79031L188.06 9.90031V10.1403C188.45 10.1403 188.85 10.2103 189.25 10.2103C189.65 10.2103 190.25 10.3303 190.52 10.1203C191.86 9.12031 193.22 9.73031 194.6 9.88031C195.14 9.94031 195.74 9.56031 196.26 9.66031C196.901 9.81591 197.504 10.1018 198.03 10.5003C198.596 10.841 199.267 10.9601 199.916 10.8345C200.564 10.7089 201.143 10.3476 201.54 9.8203C201.682 9.71451 201.844 9.63942 202.016 9.59981C202.188 9.56021 202.366 9.55698 202.54 9.59031C203.85 9.76031 205.15 9.9903 206.54 10.2103C206.37 11.7403 206.45 13.0303 208.44 13.0703L208.97 12.1903H215.28L214.62 11.1003C216.2 10.9803 217.82 10.4903 219.22 10.8603C220.62 11.2303 222.39 10.9403 223.89 12.0803C224.89 12.8403 226.62 12.7303 228.03 12.7703C229.44 12.8103 230.91 12.5203 231.93 14.0303C232.15 14.3703 233.02 14.3203 233.59 14.3603C234.479 14.4153 235.371 14.4153 236.26 14.3603C236.91 14.3603 237.55 14.1103 238.2 14.0203C238.603 13.9953 239.007 13.9953 239.41 14.0203L239.66 14.4403L238.86 14.6703L238.95 14.9303L241.11 15.5803L240.7 13.9103C243.06 14.2003 245.44 14.1103 247.51 14.9103C249.58 15.7103 251.93 15.9103 253.18 18.0903C253.86 17.1503 254.48 17.2403 256.95 18.7803C256.15 19.4503 254.83 19.4803 254.58 20.7203C253.72 20.4603 252.86 20.2103 252 19.9403C251.56 19.8003 251.14 19.6103 250.7 19.4403C250.357 19.3412 250.022 19.2141 249.7 19.0603C249.502 18.8859 249.33 18.6838 249.19 18.4603C249.11 18.7203 249.04 18.9803 248.97 19.2403C248.9 19.5003 248.97 19.4903 248.88 19.6603L246.53 20.4803C246.948 20.7446 247.284 21.1207 247.5 21.566C247.716 22.0114 247.802 22.5082 247.75 23.0003C244.54 22.4203 242.42 24.2203 240.08 25.7203C239.923 25.525 239.729 25.3628 239.508 25.2433C239.288 25.1238 239.046 25.0493 238.797 25.0241C238.547 24.999 238.295 25.0238 238.055 25.0969C237.816 25.1701 237.593 25.2902 237.4 25.4503C237.06 25.6101 236.681 25.6658 236.31 25.6103C234.58 25.4703 234.31 27.0903 233.2 28.0003L234.28 28.2203C234.37 28.9203 234.44 29.5403 234.52 30.2203C233.36 30.3103 232.97 30.8503 233.67 31.9003C233.06 32.5303 231.4 32.0503 231.98 33.7503C230.03 33.4703 230.69 35.9003 229.14 36.3103C228.66 33.5803 227.14 30.9303 229.21 28.5703C231.7 26.8703 234.11 25.4403 235.61 22.9703L235.39 22.6503C235.12 22.7403 234.62 22.8403 234.62 22.9103C234.69 23.8203 233.98 23.9103 233.39 24.1703C232.8 24.4303 231.96 25.7903 231.61 23.8703C230.807 23.7845 229.995 23.8559 229.22 24.0803C228.604 24.3947 228.081 24.8632 227.7 25.4403C227.5 25.6903 227.56 26.1603 227.46 26.7103L224.46 27.1203L225.05 26.2103C223.5 26.3203 222.05 26.7103 220.83 26.4503C217.83 25.8303 216.19 27.7403 214.3 29.3203C213.37 30.0903 212.46 30.8803 211.68 31.5503C212.043 32.0194 212.456 32.4485 212.91 32.8303C213.254 32.9667 213.636 32.9667 213.98 32.8303C214.42 32.7303 214.98 32.2103 215.2 32.3403C215.69 32.6203 216.4 33.2903 216.32 33.6503C215.86 35.7103 216.18 37.9703 214.89 39.8403C213.72 41.5303 212.57 43.2303 211.4 44.9103C211.096 45.3374 210.636 45.6281 210.12 45.7197C209.604 45.8114 209.072 45.6967 208.64 45.4003C208.06 46.2603 206.89 46.5703 206.79 47.9903C206.79 48.5803 205.61 49.1003 205.42 49.6703C205.924 50.8688 206.351 52.0979 206.7 53.3503C207.13 55.3503 205.24 55.2203 203.98 55.9903C204.08 54.7203 204.2 53.5803 204.23 52.4403C204.23 52.1403 203.9 51.5703 203.77 51.5903C202.2 51.7603 202.98 50.8403 203.11 50.2303C203.171 50.0535 203.248 49.8828 203.34 49.7203C203.118 49.5415 202.859 49.4143 202.581 49.3476C202.304 49.281 202.015 49.2767 201.736 49.3351C201.457 49.3934 201.194 49.5129 200.966 49.685C200.739 49.8571 200.552 50.0775 200.42 50.3303L200.03 50.0603L200.6 48.0603C199.39 47.8003 199.04 49.0003 198.3 49.5003C198.1 49.6303 197.99 49.8903 197.78 50.0103C197.533 50.1218 197.275 50.2057 197.01 50.2603C197.2 50.5503 197.38 50.8503 197.57 51.1303C197.76 51.4103 198.05 51.8103 198.11 51.8903H201.36L198.42 54.4303C199.2 56.3203 199.82 57.8603 200.47 59.4303L199.47 60.3203L200.93 60.5403C200.29 61.7903 199.66 63.0503 199.01 64.3003C198.608 65.2889 198.095 66.2283 197.48 67.1003C196.69 68.0103 196.12 69.2203 194.57 69.3703C193.55 69.5767 192.579 69.9773 191.71 70.5503C191.28 70.7803 190.99 71.2903 190.54 71.7803L190.36 70.5903C189.658 70.5074 188.951 70.6816 188.368 71.0806C187.785 71.4796 187.367 72.0764 187.19 72.7603C186.78 74.7603 188.36 75.9503 189.44 77.1503L191.24 76.6903L191.45 76.9903C191.1 77.4403 190.73 77.8703 190.45 78.3403C190.242 78.5681 190.109 78.8544 190.07 79.1603C190.19 80.9803 190.32 82.6803 188.12 83.5903C187.51 83.8403 187.23 84.9203 186.52 85.5103V84.2203L182.84 79.9103C182.668 80.0954 182.53 80.3084 182.43 80.5403C182.39 81.0564 182.306 81.5682 182.18 82.0703C181.29 83.8903 182.5 85.4403 182.83 87.0703C182.97 87.7403 184.04 88.1703 184.44 88.8503C184.813 89.5924 185.079 90.3836 185.23 91.2003C185.503 92.1765 185.634 93.1868 185.62 94.2003C184.827 93.6424 184.122 92.9682 183.53 92.2003C183.154 91.2831 182.895 90.3222 182.76 89.3403C182.671 88.7452 182.456 88.176 182.13 87.6703C180.89 86.2903 180.95 84.7503 181.23 83.1003C181.67 80.5303 180.46 78.2403 180.11 75.6603C179.25 76.3803 179.01 77.6603 177.57 76.9103C178.47 74.9103 177.31 73.3403 176.2 71.7203C175.862 71.0713 175.629 70.3726 175.51 69.6503C174.51 69.8603 173.51 70.0203 172.6 70.2703C172.26 70.3603 171.74 70.5903 171.69 70.8303C171.34 72.7303 169.51 73.4703 168.58 74.9203C167.98 75.8603 166.96 76.5203 166.33 77.4403C166.068 78.0336 165.985 78.6904 166.09 79.3303C166.276 81.9267 165.432 84.4918 163.74 86.4703C162.588 83.8371 161.697 81.0973 161.08 78.2903C160.38 75.5203 160 72.6703 159.54 70.2303L158.54 71.4503L156.54 69.7603L157.39 69.4103C156.39 68.3103 155.44 67.2003 154.39 66.0403C152.77 66.0403 150.96 66.1303 149.16 66.0403C147.36 65.9503 147.26 65.7303 146.65 64.1903C146.227 64.4085 145.763 64.533 145.288 64.5553C144.812 64.5777 144.338 64.4974 143.897 64.32C143.456 64.1425 143.058 63.872 142.73 63.527C142.403 63.1819 142.154 62.7703 142 62.3203C141.911 62.0743 141.808 61.8339 141.69 61.6003C140.85 59.9803 140.6 59.9503 139.41 61.2803L141.64 66.0603L142.15 64.8503C142.3 65.5203 142.38 65.8503 142.43 66.1103C142.52 66.5703 142.59 67.0303 142.67 67.4903C143.4 67.3503 144.3 68.0303 144.86 66.9203C145.289 66.2423 145.782 65.6062 146.33 65.0203C146.332 65.5955 146.395 66.1688 146.52 66.7303C146.66 67.1718 146.955 67.5481 147.35 67.7903C149.35 68.7903 149.6 70.1703 148.14 71.7903C147.9 72.1018 147.692 72.4368 147.52 72.7903C147.33 73.1103 147.16 73.4603 146.94 73.7903C146.128 74.8158 145.105 75.6547 143.94 76.2503C142.68 77.0003 141.63 78.1103 140.4 78.9103C139.227 79.6237 138.015 80.2713 136.77 80.8503C136.08 81.1903 135.77 80.9103 135.62 80.1603C135.25 78.0403 135.28 75.8103 133.99 73.9303C133.524 73.3113 133.103 72.6596 132.73 71.9803C132.44 71.3903 132.34 70.7103 132.1 70.0803C131.78 69.2103 131.43 68.3603 131.1 67.5103C130.64 66.4603 130.16 65.4203 129.65 64.3903C129.35 63.7803 128.99 63.2103 128.73 62.7503L126.83 63.3203L126.71 62.9403L127.71 62.1903L125.71 60.1203C125.95 59.9703 126.43 59.4503 126.92 59.4303C128.18 59.4303 128.56 58.6403 128.79 57.6403C129.15 56.0803 129.5 54.5203 129.95 52.5503L127.8 53.5503C127.8 53.5503 127.71 53.6003 127.67 53.5503C126.83 53.3403 125.58 52.6803 125.21 53.0103C124.02 54.0603 123.44 52.8503 122.76 52.5403C122.08 52.2303 121.92 51.4103 121.53 50.8403L121.71 48.4203C120.85 47.9203 120.88 47.9503 119.89 48.8403C119.69 49.0203 119.15 48.8403 118.58 48.7903C118.953 49.3187 119.287 49.8735 119.58 50.4503C119.765 50.822 119.811 51.2476 119.71 51.6503C119.43 52.2814 119.095 52.887 118.71 53.4603C117.82 51.4603 116 49.8803 115.99 47.3203C115.99 46.7603 115.19 46.0503 114.58 45.6803C113.58 45.0903 112.53 44.6803 112.2 43.4503C112.2 43.3203 111.73 43.3303 111.59 43.1803C111.413 42.9296 111.268 42.6574 111.16 42.3703C109.89 42.7003 109.72 43.3103 110.64 44.4303C111.02 44.8803 111.25 45.4303 111.64 45.9203C111.87 46.2203 112.17 46.6003 112.5 46.6803C113.71 46.9403 114.26 48.0503 115.19 48.6803C115.26 48.6803 115.19 48.9103 115.29 49.1603L113.72 48.4903L114.17 50.0803L113.17 51.4103C113.76 49.1903 112.17 48.4603 110.76 47.4603C109.976 46.7825 109.269 46.0214 108.65 45.1903C108.26 44.7403 107.91 44.2603 107.55 43.8003C107.029 44.096 106.531 44.4303 106.06 44.8003C105.821 45.0843 105.489 45.2751 105.124 45.3391C104.758 45.4031 104.381 45.3362 104.06 45.1503C103.31 44.8503 102.49 44.7703 102.56 46.1503C102.56 46.5903 101.98 47.0803 101.61 47.5003C101.06 48.1303 100.4 48.6803 99.92 49.3503C99.73 49.6203 99.92 50.1303 99.92 50.8403C99.28 52.6703 97.24 52.9703 95.12 53.4703L94.3 52.3803L92.91 52.5403C91.52 50.2303 93.46 47.7803 92.3 45.4203C94.3 44.1803 96.45 45.1603 98.57 45.0003C98.71 43.8203 99.57 42.5903 98.57 41.4403C97.7251 40.6385 96.9397 39.7762 96.22 38.8603L98.73 38.9703L98.59 37.7803C98.8455 37.9021 99.1231 37.9704 99.4059 37.9812C99.6888 37.9919 99.9708 37.9448 100.235 37.8428C100.499 37.7407 100.739 37.5859 100.941 37.3877C101.143 37.1896 101.303 36.9523 101.41 36.6903C101.55 36.4203 101.9 36.2803 102.13 36.0503C102.79 35.4103 103.43 34.7603 104.34 33.8603L107.18 32.7303C107.191 32.3254 107.164 31.9203 107.1 31.5203C106.59 29.5403 106.58 29.5503 108.49 28.5003Z" fill="#1D5DFA" fill-opacity="0.3"/>
<path d="M-1.99 44.5703H-0.510002C-0.763081 44.0228 -1.12366 43.5317 -1.57031 43.1263C-2.01696 42.7208 -2.54057 42.4093 -3.11 42.2103C-4.81605 41.3332 -6.11419 39.8271 -6.73 38.0103C-6.92 37.5603 -7.62 37.3203 -8.02 37.0103L-8.34 37.9303C-8.85 36.7603 -10.34 36.2803 -9.2 34.8703C-9.14001 34.7803 -9.93 33.6803 -10.2 33.7303C-11.46 33.9803 -12.32 33.2903 -13.3 32.7303C-13.9304 32.4084 -14.604 32.1794 -15.3 32.0503C-16.87 31.7303 -18.45 31.4703 -20.12 31.1703L-19.96 31.9003L-23.31 32.7603L-23.06 31.0003L-25.06 32.6603C-24.67 33.4203 -27.86 36.1203 -29.86 36.6603L-29.18 37.3003L-29.25 37.7003C-30.79 36.3403 -32.06 37.7003 -33.56 37.7003L-31.43 36.5603C-30.6389 36.2253 -29.8792 35.8203 -29.16 35.3503C-28.5111 34.7411 -27.9218 34.0714 -27.4 33.3503H-31.24L-31.52 31.7903C-33.62 33.2803 -33.52 30.7903 -34.52 30.3703C-33.96 28.2503 -32.02 28.5503 -30.52 28.0403L-30.77 26.8903C-33.03 27.1003 -33.55 27.7903 -36 25.8903C-35.47 25.7203 -35 25.5803 -34.53 25.3903C-34.06 25.2003 -33.61 24.9303 -33.17 24.7103C-32.35 25.7103 -31.69 25.7703 -30.53 24.9503L-35.43 23.0103C-34.7 22.7203 -34.25 22.5803 -33.83 22.3803C-33.41 22.1803 -32.74 21.7703 -32.17 21.5403C-31.06 21.0903 -29.95 20.6603 -28.82 20.2903C-26.96 19.6803 -25.14 20.1303 -23.3 20.5103C-21.8281 20.7724 -20.3423 20.9494 -18.85 21.0403C-16.5597 21.1654 -14.2963 21.5959 -12.12 22.3203C-11.6188 22.4452 -11.1061 22.519 -10.59 22.5403C-10.64 20.7803 -9.27 22.1903 -8.64 21.7003C-7.87016 21.2827 -6.98946 21.1149 -6.12 21.2203L-8.85 22.3303L-8.68 22.7003L-4.43 20.8703L-3.02 22.1203L-2.02 21.3203L-1.5 22.2003C-0.849998 21.1303 0.0300026 21.4803 0.970001 21.7103C2.24 22.0203 3.54 22.1803 4.83 22.4303C5.24 22.5103 5.63 22.6503 6.21 22.8103L5.39 23.4503L5.45 23.7703C6.46352 23.6277 7.48662 23.5642 8.51 23.5803C9.41235 23.7298 10.2993 23.9608 11.16 24.2703L11.02 23.2703C12.02 23.2703 12.89 23.2203 13.77 23.2703C15.43 23.3903 17.05 24.1003 18.77 23.0603C19.1 22.8603 19.96 23.5203 20.77 23.8403L22.26 22.6603L20.03 20.9703C19.84 20.0903 20.26 19.3703 21.41 19.2703C22.34 19.1903 23.52 20.6403 23.41 21.5703L24.84 21.8203L24.68 23.2703L25.91 21.8203L27.22 24.6103L29.37 21.6103L31.64 22.0203V24.2203L31.93 24.5703L29.77 25.0403L30.48 26.1603L28.01 24.8003C28.29 25.9803 27.7 26.2303 26.94 26.1403C26.231 25.9566 25.5024 25.8592 24.77 25.8503L27.69 26.7103C26.8 27.1303 26.16 27.4203 25.53 27.7103C25.214 27.8373 24.9254 28.0241 24.68 28.2603C23.58 29.6503 21.33 30.1603 21.45 32.4503C21.45 32.7903 21.75 33.3403 22 33.4503C23.09 33.7003 23.18 34.4503 23.11 35.4503C24.53 34.6703 25.57 35.4503 26.75 36.1103C28.1646 36.7522 29.6174 37.3066 31.1 37.7703C31.2 38.6703 31.03 40.1003 32.36 40.9303C32.63 41.1003 33.09 41.4303 33.16 41.3603C33.5 41.0303 34 40.5803 33.98 40.2003C33.8727 39.4262 33.685 38.6655 33.42 37.9303C34.18 37.2803 35.42 36.7303 35.57 35.9303C35.72 35.1303 34.85 34.1603 34.37 33.1303C35.59 32.2603 34.31 30.9203 34.51 29.5703C36.91 28.9103 38.99 30.1303 41.1 31.2403C40.9888 31.4842 40.9355 31.7506 40.9442 32.0185C40.953 32.2865 41.0235 32.5488 41.1503 32.785C41.2771 33.0212 41.4568 33.2249 41.6753 33.3802C41.8938 33.5355 42.1452 33.6382 42.41 33.6803C44 34.0803 44.18 32.4303 44.83 31.5103C45.51 32.5103 46.23 33.3203 46.83 34.2703C47.16 34.8403 47.02 35.7803 47.44 36.1603C48.3143 36.8303 49.2521 37.4131 50.24 37.9003L49.49 38.3903C50.0771 38.4484 50.6528 38.5898 51.2 38.8103C51.5785 39.1 51.8266 39.5279 51.89 40.0003C51.8609 40.1963 51.7859 40.3827 51.6712 40.5443C51.5566 40.7058 51.4054 40.8381 51.23 40.9303C49.28 41.8803 47.46 43.1003 45.03 42.5503C43.47 42.1903 42.42 43.6103 41.34 44.6303C41.9758 44.3304 42.6267 44.0633 43.29 43.8303C43.7888 43.6999 44.3069 43.6593 44.82 43.7103C44.94 43.7103 45.17 44.3903 45.08 44.4703C44.08 45.4003 44.44 46.1503 45.36 46.8103C46.58 47.6903 47.02 47.5903 47.85 46.3703C47.8975 46.284 47.9668 46.2118 48.0511 46.1609C48.1354 46.11 48.2316 46.0822 48.33 46.0803L48.02 47.1503L48.59 46.8203L48.79 47.1703L44.24 49.6003L43.91 49.5203L44.85 47.5203C43.3718 48.1738 41.9357 48.9186 40.55 49.7503C40.21 49.9803 40.37 50.9803 40.3 51.6203L40.67 51.7903C40.2538 51.9264 39.825 52.0202 39.39 52.0703C38.29 52.0703 37.64 52.3803 37.52 53.6903C37.45 54.4203 36.78 55.1003 36.3 55.9303L35.8 54.0203C35.723 54.765 35.723 55.5156 35.8 56.2603C36.31 58.5503 36.19 58.9103 34.2 60.0403C33.02 60.7203 31.65 62.7903 31.86 63.6703C32.16 64.9003 32.59 66.1003 32.86 67.3403C32.9091 68.0089 32.8721 68.6811 32.75 69.3403L32.11 69.4303L30.11 64.1903L29 64.6703C28 63.0003 26.6 64.0603 25.33 64.0003L25.87 65.2203C24.72 64.9803 23.81 64.8403 22.87 64.6003C22.18 64.4103 21.66 64.4103 21.24 65.1203C21.03 65.4703 20.56 65.6603 20.24 65.9503C19.92 66.2403 19.48 66.5203 19.47 66.8203C19.41 69.0203 19.38 71.2303 19.47 73.4303C19.5371 74.1605 19.815 74.8553 20.27 75.4303C20.7 75.9703 21.51 76.6803 22.04 76.5903C23.04 76.4203 24.42 76.6903 24.73 75.0203C25.04 73.3503 25.61 73.0203 27.59 73.3203L26.2 79.3203C26.85 79.3203 27.49 79.3203 28.12 79.2203C29.8 79.0103 30.49 79.7803 30.25 81.4103C29.96 83.4103 29.62 85.5703 31.97 86.8103C33.87 85.8803 33.85 85.8903 35.39 87.4803C35.8086 87.8213 36.2649 88.1132 36.75 88.3503C37.21 85.7103 39.43 85.0303 41.36 83.8403C41.2 84.9303 40.53 85.9503 41.2 86.9803L42.2 84.3303C43.25 84.8303 44.12 85.2603 45 85.6503C45.9428 85.9749 46.9672 85.9749 47.91 85.6503C48.84 85.4603 49.33 86.4703 50.02 86.9503C50.2557 87.1548 50.4701 87.3827 50.66 87.6303C51.0463 88.1049 51.4784 88.5403 51.95 88.9303C52.5233 89.4245 53.2107 89.7681 53.95 89.9303C56.43 90.0703 57.61 90.7303 58.21 93.1103C58.81 95.4903 60.39 96.3003 62.38 96.7603C63.24 96.9603 63.66 97.2303 63.49 98.0503C65.49 98.0503 67.49 97.6503 68.93 99.5703C69.06 99.7303 69.27 99.9403 69.45 99.9503C69.7559 99.9659 70.0554 100.044 70.3297 100.181C70.604 100.317 70.8472 100.509 71.0443 100.743C71.2413 100.978 71.3879 101.25 71.4749 101.544C71.5619 101.838 71.5875 102.146 71.55 102.45C71.55 103.45 70.63 104.53 70 105.45C69.37 106.37 68.72 107.06 68.09 107.88C68.0185 108.041 67.9843 108.215 67.99 108.39C67.9023 109.983 67.7186 111.569 67.44 113.14C67.0798 114.265 66.5792 115.341 65.95 116.34C65.83 116.57 65.49 116.7 65.22 116.81C63.99 117.27 62.72 117.63 61.53 118.18C61.0561 118.402 60.6593 118.761 60.3904 119.21C60.1214 119.659 59.9924 120.178 60.02 120.7C59.7549 121.848 59.3129 122.948 58.71 123.96C58.54 124.36 58.33 124.74 58.05 125.29L57.83 124.03C56.54 126.58 55.5 129.43 51.89 127.03C52.35 127.85 52.7 128.38 52.97 128.95C53.1007 129.17 53.1755 129.418 53.188 129.673C53.2005 129.927 53.1503 130.182 53.0417 130.413C52.9331 130.644 52.7695 130.844 52.5652 130.997C52.3609 131.15 52.1222 131.251 51.87 131.29C50.92 131.56 49.92 131.67 48.92 131.86C49.04 133.7 48.63 134.02 46.48 133.39C47.48 135.76 46.2 137.16 44.29 138.25C44.5563 138.527 44.8476 138.778 45.16 139C46.16 139.55 46.16 139.72 45.26 140.52C44.6 141.09 43.68 141.7 43.53 142.42C43.4271 143.378 43.6642 144.34 44.2 145.14C44.6 145.75 45.53 146.02 46.39 146.54C45 146.68 43.59 147.15 42.39 146.85C41.0313 146.484 39.7997 145.75 38.83 144.73C38.2 144.07 38.13 142.8 37.95 141.78C37.77 140.76 37.63 139.71 38.95 139.14L37.95 139.01L39.07 136.16H39.34L39.55 137.33H39.72L40.23 134.33C39 134.19 39 133.47 39.43 132.58C39.5 132.43 39.74 132.24 39.7 132.16C38.84 130.28 40.53 128.99 40.78 127.39C41.03 125.79 41.1 124.26 41.31 122.7C41.58 120.7 41.95 118.7 42.19 116.64C42.4223 115.487 42.446 114.302 42.26 113.14C42.1156 112.699 41.8798 112.292 41.568 111.948C41.2561 111.603 40.8752 111.328 40.45 111.14C37.85 110.23 37.16 107.88 36.15 105.83C35.35 104.2 34.95 102.41 33.52 101.08C33.375 100.94 33.2611 100.77 33.1859 100.583C33.1106 100.395 33.0756 100.194 33.0832 99.9925C33.0907 99.7907 33.1406 99.5927 33.2297 99.4114C33.3187 99.2302 33.4449 99.0696 33.6 98.9403C33.8901 98.6414 34.1389 98.3051 34.34 97.9403C33.4 97.6303 33.15 96.9903 33.6 96.2003C34.1746 95.1135 34.8438 94.0795 35.6 93.1103C36.77 91.6903 36.7 90.5503 35.38 89.4303C34.9081 88.8808 34.5328 88.2553 34.27 87.5803C34.1 87.2703 33.94 86.9603 33.78 86.6403H33.39L32.64 88.4903L31.92 87.9603C31.6884 87.7556 31.4204 87.5962 31.13 87.4903C30.57 87.3603 29.99 87.3403 30.03 86.5403C30.0243 86.519 30.0142 86.4992 30.0004 86.4819C29.9867 86.4647 29.9695 86.4506 29.95 86.4403C28.64 86.0903 28.51 84.9103 28.08 83.9003C27.8465 83.3413 27.4757 82.8503 27.002 82.4728C26.5283 82.0952 25.967 81.8433 25.37 81.7403C24.2715 81.4207 23.3285 80.7091 22.72 79.7403C22.17 79.0803 21.62 78.6503 20.72 79.2903C20.512 79.3771 20.2871 79.4158 20.062 79.4037C19.8369 79.3916 19.6175 79.3289 19.42 79.2203C17.5 78.1203 15.6 76.9703 13.75 75.7503C13.5472 75.5992 13.3821 75.4032 13.2676 75.1777C13.1531 74.9522 13.0923 74.7032 13.09 74.4503C13.1936 73.8293 13.1577 73.1929 12.9847 72.5875C12.8117 71.9821 12.5061 71.4228 12.09 70.9503C11.15 69.6103 10.09 68.3103 9.27 66.9503C8.52 65.7603 7.98 64.4403 7.27 63.2403C7.01 62.8203 6.43 62.6003 5.99 62.2403L5.61 62.5203C6.02 63.3703 6.43 64.2203 6.86 65.0703C7.61 66.5503 8.37 68.0203 9.14 69.5003C9.3 69.8103 9.52 70.1003 9.66 70.4303C9.8 70.7603 9.96999 71.2603 10.12 71.6703L9.58 71.9003C9.06692 70.7171 8.47215 69.571 7.8 68.4703C7.31056 67.8965 6.73343 67.4037 6.09 67.0103C6.09 66.2303 6.34 65.6203 6.15 65.4503C4.81 64.2303 4.6 62.4503 3.85 60.9603C3.66 60.5903 3.36 60.1003 3.02 60.0103C1.02 59.5103 0.739998 57.6403 -0.110001 56.2403C-0.518188 55.6386 -0.853848 54.9908 -1.11 54.3103C-1.6149 52.5982 -1.74787 50.798 -1.5 49.0303C-1.54255 47.5328 -1.70642 46.0413 -1.99 44.5703Z" fill="#1D5DFA" fill-opacity="0.3"/>
<path d="M116.18 127.71C115.743 127.503 115.385 127.158 115.163 126.728C114.941 126.298 114.866 125.807 114.95 125.33C114.898 124.226 114.43 123.183 113.64 122.41C112.535 121.14 111.943 119.503 111.98 117.82C111.809 116.221 111.223 114.694 110.28 113.39C108.95 111.13 109.85 109.16 110.79 107.23C111.21 106.36 111.6 105.74 110.96 104.88C110.821 104.656 110.755 104.394 110.77 104.13C110.844 103.165 110.717 102.194 110.397 101.28C110.077 100.366 109.57 99.5286 108.91 98.8203C107.34 97.2003 107.35 95.5903 107.91 93.6603C108.032 93.0119 107.908 92.3412 107.56 91.7803C107.385 91.6014 107.172 91.4643 106.936 91.3795C106.701 91.2946 106.449 91.2641 106.2 91.2903C105.2 91.3803 104.58 91.4203 104.2 90.2903C103.82 89.1603 102.6 89.5203 101.73 89.7103C100.86 89.9003 100.03 90.3503 99.16 90.6303C98.7482 90.7396 98.3257 90.8034 97.9 90.8203C96.7991 90.8248 95.701 90.9319 94.62 91.1403C94.2931 91.285 93.932 91.3345 93.5783 91.2832C93.2245 91.232 92.8923 91.0819 92.62 90.8503C91.5712 90.063 90.5695 89.2149 89.62 88.3103C88.792 87.2611 88.0337 86.1587 87.35 85.0103C87.18 84.7803 86.89 84.6403 86.7 84.4103C86.51 84.1803 86.21 83.8803 86.19 83.5903C86.0286 82.2484 86.1408 80.8876 86.52 79.5903C86.8835 78.5999 86.8513 77.5075 86.43 76.5403C85.6 75.2303 86.43 74.4703 86.88 73.5403C87.51 72.2703 88.26 71.0403 89.01 69.8303C89.2062 69.5591 89.488 69.3618 89.81 69.2703C91.08 68.8803 91.95 68.2703 91.93 66.7203C91.9232 66.2184 92.0586 65.7248 92.3205 65.2965C92.5824 64.8683 92.9601 64.5229 93.41 64.3003C94.1727 63.6985 94.8461 62.9914 95.41 62.2003C96.83 63.3503 98.41 62.7703 99.95 62.1203C100.944 61.7147 101.986 61.4358 103.05 61.2903C104.547 61.115 106.053 61.0149 107.56 60.9903C108.139 61.0161 108.715 61.093 109.28 61.2203C108.98 62.1303 108.69 62.9703 108.36 63.9703C109.05 65.2903 110.74 64.6003 111.98 65.1403C112.12 65.2003 112.43 65.1403 112.44 65.2103C112.73 66.7503 114.29 66.3803 115.17 67.0303C116.05 67.6803 116.36 67.1703 116.43 66.3103C116.432 66.052 116.503 65.7989 116.634 65.5765C116.766 65.3542 116.954 65.1704 117.179 65.0436C117.404 64.9169 117.658 64.8517 117.917 64.8546C118.175 64.8576 118.428 64.9285 118.65 65.0603C119.957 65.5964 121.292 66.0604 122.65 66.4503C123.343 66.566 124.053 66.5111 124.72 66.2903C125.63 66.0403 126.27 65.9503 126.65 67.0903C127.178 68.6402 127.792 70.1593 128.49 71.6403C129.04 72.8403 130.15 73.9203 130.28 75.1303C130.48 77.1303 131.77 78.4603 132.34 80.1903C132.545 80.6959 132.859 81.15 133.26 81.5203C133.95 82.2303 134.78 82.8203 135.4 83.5903C135.74 84.0003 135.7 84.7003 135.99 85.1803C136.097 85.3278 136.239 85.4463 136.403 85.5249C136.567 85.6035 136.748 85.6397 136.93 85.6303C138.64 85.2603 140.33 84.7903 142.24 84.3103C142.19 85.1627 142.021 86.004 141.74 86.8103C140.37 89.4703 139.12 92.1303 136.62 94.1603C134.74 95.6903 133.55 98.0903 132.08 100.16C131.94 100.34 131.89 100.81 132 100.9C132.91 101.65 132.34 102.63 132.49 103.49C132.64 104.35 133.15 104.98 133.28 105.75C133.545 106.887 133.602 108.063 133.45 109.22C133.29 109.97 132.45 110.64 131.83 111.22C130.83 112.14 129.83 112.94 128.83 113.84C128.68 113.97 128.72 114.39 128.83 114.65C128.95 115.11 129.16 115.55 129.3 116.01C129.4 116.261 129.449 116.529 129.443 116.798C129.437 117.068 129.377 117.333 129.266 117.579C129.155 117.825 128.995 118.045 128.796 118.228C128.598 118.41 128.364 118.55 128.11 118.64C127.68 118.84 127.28 119.09 127.11 119.19C127.11 120.03 127.24 120.76 126.96 121.19C125.46 123.58 123.96 126.11 121.06 126.96C119.882 127.181 118.688 127.304 117.49 127.33C117.042 127.412 116.603 127.539 116.18 127.71Z" fill="#1D5DFA" fill-opacity="0.3"/>
<path d="M53.67 22.5403L52.28 21.4103L55.39 19.8203V18.5303L52.79 17.5303L52.85 17.1303L55.58 17.5203L53.45 16.0303C52.17 16.7803 51.78 16.4903 51.74 14.5803H52.63C52.06 13.7603 51.58 12.9703 51.01 12.2603C50.3143 11.2371 49.3131 10.4599 48.1494 10.0396C46.9857 9.61941 45.7189 9.57763 44.53 9.9203C44.0476 10.0986 43.5332 10.1736 43.02 10.1403C42.48 10.0403 41.51 10.6403 41.45 9.3503C41.45 9.1903 40.45 9.07031 39.84 8.94031V8.4903L42.47 8.34031L38.01 7.08031C38.3217 6.86288 38.6572 6.68171 39.01 6.5403C40.31 6.3303 41.62 6.21031 42.91 5.95031C43.67 5.80031 44.65 5.79031 44.65 4.52031H42.77L42.69 4.0603L47.01 2.95031L47.08 2.15031C47.19 2.15031 47.28 2.05031 47.35 2.08031C48.59 2.53031 49.61 1.5703 50.8 1.5603C51.1445 1.54974 51.4873 1.61197 51.8061 1.74293C52.1249 1.87389 52.4124 2.07063 52.65 2.3203C52.98 2.6103 53.65 1.25031 54.54 2.02031C54.71 2.17031 55.13 2.02031 55.54 2.02031L55.04 1.1703L59.55 2.3103L59.66 1.9203C59.2846 1.87627 58.9154 1.78903 58.56 1.66031C58.4345 1.60103 58.3237 1.51469 58.2355 1.40749C58.1473 1.30029 58.084 1.17489 58.05 1.0403C58.05 0.880304 58.39 0.550302 58.6 0.530302C59.74 0.410302 60.88 0.400306 62.02 0.300306C62.83 0.230307 63.63 -0.00969656 64.43 0.000303444C67.6 0.000303444 70.77 0.000305593 73.92 0.260306C75.362 0.490426 76.7786 0.858789 78.15 1.3603L74.74 1.9303V2.4703H75.68C76.24 2.4703 76.8 2.3503 77.36 2.2903L76.69 3.3603C78.1415 3.17321 79.5782 2.88585 80.99 2.5003C81.7653 2.20366 82.5955 2.07779 83.4239 2.13128C84.2522 2.18478 85.0593 2.41639 85.79 2.8103C83.06 4.1103 80.09 4.9503 78.34 7.5703C78.9701 7.51173 79.6055 7.55905 80.22 7.7103C80.61 7.8803 80.8 8.5103 81.15 9.0403L79.26 9.1503C79.14 9.9303 81.13 10.4503 79.62 11.4803L80.48 12.3803L78.53 12.6603L79.41 13.6603H76.41C75.83 14.4503 75.94 15.0603 77.07 15.5003C77.3152 15.569 77.5441 15.6862 77.743 15.845C77.942 16.0039 78.107 16.2011 78.2283 16.425C78.3496 16.6489 78.4246 16.8948 78.4489 17.1483C78.4733 17.4017 78.4464 17.6574 78.37 17.9003L75.74 16.8003L74.85 17.8803L78.16 18.2203C75.7 19.6303 73.37 20.8803 70.6 21.0503C70.14 21.0503 69.6 21.6203 69.3 22.0503C68.16 23.6303 66.83 24.7103 64.71 24.5103C64.43 24.5103 63.8 25.1903 63.8 25.5103C63.8835 26.0179 63.8071 26.5389 63.5814 27.0012C63.3556 27.4634 62.9917 27.8441 62.54 28.0903C62.41 28.1603 62.34 28.4003 62.3 28.5803C62.07 29.5303 61.8 30.4903 61.64 31.4503C61.48 32.4103 60.92 32.1803 60.33 31.9203C59.5535 31.6339 58.7954 31.3 58.06 30.9203C57.5477 30.6327 57.1201 30.2154 56.82 29.7103C55.74 27.7103 54.74 25.7103 53.76 23.7103C53.6533 23.33 53.6227 22.9324 53.67 22.5403Z" fill="#1D5DFA" fill-opacity="0.3"/>
<path d="M218.47 108.32C218.913 108.652 219.313 109.039 219.66 109.47C220.026 110.004 220.243 110.625 220.29 111.27C220.22 112.73 221.29 113.27 222.16 114.01C222.323 114.129 222.471 114.266 222.6 114.42C222.922 115.153 223.425 115.793 224.06 116.28C225.06 116.97 225.7 118.44 226.23 119.68C226.564 120.581 226.686 121.547 226.585 122.503C226.484 123.459 226.164 124.379 225.65 125.19C224.702 126.664 223.999 128.281 223.57 129.98C223.49 130.42 220.35 131.35 219.9 131.14C219.68 131.03 219.46 130.89 219.23 130.76C218.869 130.985 218.462 131.124 218.04 131.168C217.618 131.213 217.191 131.161 216.791 131.016C216.392 130.872 216.03 130.639 215.734 130.335C215.438 130.031 215.214 129.663 215.08 129.26C214.711 128.601 214.272 127.984 213.77 127.42L213.29 127.76L213.66 125.82L211.89 127.82C211.34 126.91 211.01 125.82 210.28 125.35C209.354 124.816 208.283 124.588 207.22 124.7C205.762 124.832 204.339 125.225 203.02 125.86C202.02 126.37 201.19 127.01 199.91 126.86C199.095 126.9 198.308 127.171 197.64 127.64C197.285 127.899 196.846 128.016 196.41 127.968C195.973 127.92 195.57 127.71 195.28 127.38C195.086 127.086 195.011 126.728 195.07 126.38C195.07 125.8 195.41 125.18 195.29 124.65C194.965 123.534 194.581 122.436 194.14 121.36C193.93 120.78 193.52 120.23 194.14 119.62C194.23 119.52 193.95 119.1 193.92 118.82C193.82 117.91 193.38 116.73 193.79 116.15C194.33 115.37 195.55 115.08 196.46 114.55C197.79 113.79 199.86 114.36 200.46 112.36C200.55 112.07 200.54 111.75 200.65 111.48C200.798 111.229 200.969 110.991 201.16 110.77L201.63 111.14C202.29 110.279 203.009 109.464 203.78 108.7C204.68 107.9 205.23 108.4 205.56 109.79C206.007 109.088 206.505 108.42 207.05 107.79C207.585 107.364 208.15 106.976 208.74 106.63C208.95 106.451 209.141 106.249 209.31 106.03L212.73 106.86C212.73 106.74 212.73 106.86 212.73 106.86C211.41 108.86 211.41 108.86 213.4 110.34C213.77 110.61 214.15 110.86 214.53 111.11L215.97 112.02C216.2 110.7 216.4 109.64 216.58 108.58C216.76 107.52 216.93 106.4 217.1 105.31H217.53L218.47 108.32Z" fill="#1D5DFA" fill-opacity="0.3"/>
<path d="M35.89 19.9503C36.02 18.4503 34.6 18.5103 33.89 17.7803C33.54 18.5703 33.32 19.4203 32.35 18.5303C32.16 18.3503 31.69 18.5303 31.35 18.4403C29.75 18.2603 28.14 18.0903 26.54 17.8603C26.23 17.8603 25.96 17.5103 25.54 17.2703L26.98 16.8103C25.61 16.5603 24.46 16.4703 25.05 14.9603C25.2807 14.2726 25.7737 13.7038 26.4217 13.3779C27.0698 13.052 27.8204 12.9954 28.51 13.2203C28.23 13.8403 27.69 14.4803 27.74 15.0603C27.79 15.6403 28.42 16.2403 28.86 16.7803C28.42 14.0103 28.65 13.5303 30.63 13.2603C31.63 13.1203 32.1 13.7103 32.21 15.4303C33.024 14.9495 33.9639 14.7248 34.9074 14.7855C35.8508 14.8461 36.7542 15.1893 37.5 15.7703C37.9123 15.9721 38.3615 16.0878 38.82 16.1103H39.21C40.116 16.5104 40.9887 16.9819 41.82 17.5203C42.429 18.0824 42.9786 18.7057 43.46 19.3803L42.29 19.6103L42.14 19.9103L47.41 22.7503L45.41 25.2703L42.79 22.9903L42.28 24.2203C43.28 25.1503 45.11 25.8103 44.71 28.1303L43.22 27.9803L43.86 29.5203C42.01 28.7603 40.18 28.7003 39 27.0503C38.6617 26.5974 38.193 26.2589 37.6567 26.0801C37.1205 25.9014 36.5423 25.891 36 26.0503C35.5027 26.0604 35.0079 25.979 34.54 25.8103C34.62 25.4003 34.68 24.9903 34.78 24.5903C34.823 24.3337 34.9183 24.0886 35.06 23.8703C35.2859 23.5529 35.5796 23.2898 35.92 23.1003C36.06 23.0303 36.39 23.3803 36.62 23.5403L35.75 24.6603L37.64 24.4603V24.1403L37.01 23.9203C37.32 22.9203 39.19 22.8403 38.54 21.3803C38.3324 20.8718 37.9546 20.4512 37.4713 20.1904C36.9879 19.9295 36.429 19.8447 35.89 19.9503Z" fill="#1D5DFA" fill-opacity="0.3"/>
<path d="M27.43 3.5803C26.22 4.2903 25.11 3.0803 23.76 2.1003C25.6151 1.76068 27.4945 1.57008 29.38 1.5303C31.083 1.48926 32.7696 1.18569 34.38 0.630302C35.6279 0.41285 36.8995 0.365747 38.16 0.490295C40.48 0.550295 42.79 0.640295 45.1 0.810295C45.8336 0.959836 46.5481 1.19129 47.23 1.5003C46.74 1.7703 46.32 2.0303 45.88 2.2203C43.88 3.09363 41.8433 3.94696 39.77 4.7803C39.3359 4.96007 38.8831 5.09088 38.42 5.1703C37.8725 5.21893 37.3583 5.45401 36.9633 5.83624C36.5684 6.21848 36.3166 6.7247 36.25 7.2703L33.35 8.4603L34.61 9.1903C33.52 9.3403 32.67 10.3303 31.66 9.2803C31.56 9.1803 31.17 9.3403 30.91 9.3803C28.9185 9.77394 26.8619 9.68825 24.91 9.1303L26.91 8.5403L26.66 7.8903L28.48 8.0303L28.6 7.7203L27.03 6.9803C27.95 5.5303 29.27 6.7603 30.45 6.4703L27.62 4.7803C27.91 4.5303 27.95 4.4803 27.97 4.4903C29.66 5.1503 31.21 4.1403 32.97 4.1203C31.37 2.9203 29.46 4.3903 27.43 3.5803Z" fill="#1D5DFA" fill-opacity="0.3"/>
<path d="M3.67 18.0703L7.3 17.8503V17.6003C6.56 17.5403 5.81 17.4503 5.06 17.4203C4.31 17.3903 3.58 17.4203 2.84 17.4203V17.0003L4.35 16.4303L2.28 15.9203C2.99 14.2603 4.48 14.0303 6.12 13.8003L6.03 14.7003H6.46C7.15 14.0303 7.72 14.2703 8.36 14.8203C9 15.3703 9.25 13.8203 9.88 14.6203C10.238 15.1201 10.6775 15.5561 11.18 15.9103L10.7 13.8203H12.62C12.9088 14.8802 13.3537 15.8913 13.94 16.8203C14.55 17.5603 15.67 17.8903 16.45 18.6603L15.24 18.7703L15.78 19.7703C15.0741 19.8777 14.3559 19.8777 13.65 19.7703C12.02 19.1603 10.65 19.8303 9.11 20.2403C8.3 20.4703 7.11 20.9203 6.48 19.5803C6.4 19.4003 5.95 19.3903 5.68 19.3103L3.58 18.7203L3.67 18.0703Z" fill="#1D5DFA" fill-opacity="0.3"/>
<path d="M221.86 101.34L220.86 102.05L223.86 105.18C222.64 104.97 221.33 104.76 220.5 103.34C220.398 103.094 220.223 102.885 219.999 102.741C219.775 102.597 219.511 102.526 219.245 102.537C218.979 102.548 218.722 102.641 218.51 102.802C218.298 102.964 218.141 103.186 218.06 103.44C217.998 103.613 217.894 103.768 217.756 103.89C217.619 104.013 217.453 104.099 217.274 104.141C217.095 104.182 216.909 104.179 216.732 104.13C216.554 104.081 216.392 103.988 216.26 103.86C215.46 102.93 214.59 102.96 213.26 103.37L214.34 101.87C214.251 101.387 214.023 100.94 213.684 100.585C213.345 100.23 212.909 99.9812 212.43 99.8703C211.478 99.6596 210.545 99.372 209.64 99.0103C209.34 98.8903 209.18 98.4403 208.92 98.1103L209.92 97.6603L207.4 96.4603C207.918 96.2091 208.457 96.0017 209.01 95.8403C209.17 95.7875 209.34 95.7703 209.508 95.79C209.676 95.8097 209.837 95.8658 209.981 95.9544C210.125 96.043 210.248 96.1619 210.341 96.3028C210.434 96.4437 210.495 96.6033 210.52 96.7703C210.697 97.3737 210.904 97.9677 211.14 98.5503L211.56 98.6103C211.733 98.3132 211.941 98.0379 212.18 97.7903C212.97 97.1203 213.63 96.5003 214.85 97.4303C215.79 98.1403 217.28 98.1103 218.35 98.7003C219.584 99.4916 220.757 100.374 221.86 101.34Z" fill="#1D5DFA" fill-opacity="0.3"/>
<path d="M190 93.5003L191.24 93.9103L196.54 88.9103L198.12 90.5003C196.57 91.9603 196.5 92.9703 197.94 94.5003C196.81 94.9503 195.88 96.9703 195.94 99.1103L190.94 98.1103C190.71 96.6803 189.35 95.3903 190 93.5003Z" fill="#1D5DFA" fill-opacity="0.3"/>
<path d="M136.44 110.35C139.06 110.47 139.21 108.07 140.67 106.98C141.097 107.341 141.376 107.847 141.452 108.401C141.527 108.956 141.395 109.518 141.08 109.98C140.97 110.13 141 110.37 140.95 110.57C140.25 113.08 139.58 115.57 138.82 118.09C138.74 118.319 138.605 118.524 138.427 118.688C138.249 118.852 138.033 118.97 137.798 119.03C137.564 119.09 137.318 119.092 137.083 119.034C136.848 118.977 136.63 118.862 136.45 118.7C135.66 118.02 135.53 116.12 135.99 115.13C136.262 114.386 136.407 113.602 136.42 112.81C136.49 111.99 136.44 111.22 136.44 110.35Z" fill="#1D5DFA" fill-opacity="0.3"/>
<path d="M97.28 35.6703L96.19 35.3403C96.19 34.7403 96.19 34.2603 96.19 33.7803C96.19 33.6003 96.47 33.2803 96.52 33.3003C97.18 33.5803 97.52 33.1103 97.44 32.6803C97.36 32.2503 96.72 32.0103 96.31 31.6803C96.22 31.6103 96.06 31.6803 95.84 31.6103L96 30.8003C94.86 29.7203 94.42 28.9203 94.72 28.4903C95.38 27.5603 96.82 26.9903 97.46 27.4003C98.46 28.0603 98.46 28.5703 97.74 29.9303L100.59 33.8503C100.847 33.8834 101.088 33.9951 101.28 34.1703C101.39 34.3103 101.08 34.7803 100.97 35.1003L100.53 36.3003L95.33 37.1303L97.28 35.6703Z" fill="#1D5DFA" fill-opacity="0.3"/>
<path d="M187.16 100.84L185.68 100.72C184.55 99.1003 183.28 97.2603 182 95.4503C180.72 93.6403 179.54 92.0203 178.19 90.1403C180.89 90.4403 181.92 92.5903 183.61 93.8003C184.745 94.7206 185.675 95.8686 186.34 97.1703C186.54 97.5103 187.15 97.6103 187.51 97.7903L187.12 100.88L187.16 100.84Z" fill="#1D5DFA" fill-opacity="0.3"/>
<path d="M147.5 13.3603C145.33 13.4403 143.56 13.2603 142.18 11.9103C143.294 10.9827 144.343 9.98042 145.32 8.9103C146.42 7.5503 147.99 7.3003 149.45 6.9103C151.047 6.59794 152.659 6.36763 154.28 6.2203C155.014 6.06018 155.738 5.85988 156.45 5.6203L156.68 6.1103C156.332 6.38219 155.944 6.59812 155.53 6.7503C154.013 6.93219 152.512 7.22972 151.04 7.6403C149.101 8.31493 147.376 9.49158 146.04 11.0503C145.85 11.2903 146.04 12.0503 146.25 12.3603C146.46 12.6703 146.9 12.9403 147.5 13.3603Z" fill="#1D5DFA" fill-opacity="0.3"/>
<path d="M78.42 26.7403L76.55 26.2003L78.23 25.3203H76.37L76.19 25.0903L77.92 24.0903L77.77 23.6603L78.77 24.9503L82.77 23.9503L82.87 23.5203C83.5793 24.0353 84.2122 24.6481 84.75 25.3403C85.3 26.3403 84.15 26.6203 83.65 27.0403C82.9767 27.5376 82.2122 27.8978 81.4 28.1003C80.8875 28.2254 80.3525 28.2254 79.84 28.1003C79.07 27.9303 78.32 27.6403 77.53 27.3903L78.42 26.7403Z" fill="#1D5DFA" fill-opacity="0.3"/>
<path d="M211.2 55.1203L208.02 55.9103C208.97 54.3403 209.48 54.1003 211.89 54.1003C212.08 53.7503 212.3 53.3903 212.48 53.0103C212.66 52.6303 212.75 52.3203 212.76 52.3103C213.28 52.3103 213.88 52.3103 213.96 52.2003C214.43 51.2003 214.8 50.2003 215.18 49.2003C215.42 48.5603 215.18 47.5803 216.4 47.6203C216.735 48.1164 216.915 48.7015 216.915 49.3003C216.915 49.8991 216.735 50.4842 216.4 50.9803C216.006 51.7541 215.863 52.6314 215.99 53.4903C216.14 54.8703 214.9 54.8803 214.32 55.0303C213.24 55.3203 212.32 55.6003 212.01 56.8503L211.61 56.7903L211.2 55.1203Z" fill="#1D5DFA" fill-opacity="0.3"/>
<path d="M-2.17 12.1203C0.250354 12.053 2.66282 12.4257 4.95 13.2203C3.68 14.0103 2.68 14.6103 1.71 15.2203C0.739999 15.8303 0.0399952 16.4003 -0.630005 16.8703L-2.88 15.4003C-2.67 14.5303 -1.34 13.7203 -2.17 12.1203Z" fill="#1D5DFA" fill-opacity="0.3"/>
<path d="M22.04 6.31029L22.74 5.71029L19.94 5.17029C20.47 3.75029 21.13 2.93029 22.5 3.17029C22.8443 3.26599 23.179 3.3932 23.5 3.5503C23.8796 3.71594 24.2863 3.81083 24.7 3.8303C25.25 4.3903 25.7 5.22029 26.6 4.46029L27.82 5.46029C26.42 7.39029 24.67 7.68029 22.04 6.31029Z" fill="#1D5DFA" fill-opacity="0.3"/>
<path d="M109.07 2.63031L113.31 3.00031L112.88 2.00031L120.01 4.8503V5.3203H117.48C117.32 4.9603 117.27 4.56031 117.05 4.41031C116.913 4.3432 116.763 4.3083 116.61 4.3083C116.457 4.3083 116.307 4.3432 116.17 4.41031C115.41 4.92031 114.72 5.5303 113.86 6.2103L111.86 5.69031L112.72 5.2403L111.44 5.13031L111.39 4.90031L113 4.3203V4.00031C112.329 4.21797 111.624 4.30951 110.92 4.27031C110.245 3.96684 109.626 3.55092 109.09 3.04031L109.07 2.63031Z" fill="#1D5DFA" fill-opacity="0.3"/>
<path d="M22.98 9.50031L23.98 9.22031V9.9203C26.89 11.9203 30.09 9.9203 33.14 10.9203C33.0532 11.1806 32.9122 11.4195 32.7263 11.6213C32.5403 11.823 32.3137 11.9831 32.0614 12.0908C31.8091 12.1986 31.5368 12.2515 31.2624 12.2463C30.9881 12.241 30.718 12.1776 30.47 12.0603C30.0587 12.0398 29.6463 12.0633 29.24 12.1303C27.46 12.1303 25.67 12.1303 23.9 11.9603C23.61 11.9603 23.28 11.3703 23.13 10.9603C23.0209 10.4815 22.9706 9.99126 22.98 9.50031Z" fill="#1D5DFA" fill-opacity="0.3"/>
<path d="M4.72001 10.6403L4.33001 10.7203C4.21001 10.7203 4.09 10.7203 3.98 10.7203C3.87 10.7203 3.98 10.5103 3.98 10.4703C5.26 8.82031 6.66 9.81031 7.98 10.2903C8.57 10.5003 9.14 10.7203 9.98 11.0603L9.28001 9.47031L10.11 8.91031C10.23 9.01031 10.36 9.07031 10.4 9.16031C10.69 9.87031 10.89 10.6503 11.97 10.0703C12.12 9.9803 12.68 10.3003 12.75 10.5103C12.752 10.6698 12.7158 10.8274 12.6445 10.9701C12.5732 11.1127 12.4688 11.2362 12.34 11.3303C10.34 11.7003 8.34 12.0003 6.34 12.3303C6.26 12.3303 6.15001 12.1803 5.89001 11.9503L7.89001 11.4303V11.1303L3.44001 11.5003L3.38 11.3003L4.72001 10.8103V10.6403Z" fill="#1D5DFA" fill-opacity="0.3"/>
<path d="M200.28 97.2203L201.28 99.3503L200.43 99.9703L199.43 97.9703C199.43 100.16 199.43 100.3 198.68 100.78C198.51 99.9803 198.33 99.1703 198.15 98.3503L197.88 98.4303C198.3 97.0503 198.71 95.6703 199.14 94.2403C200.43 94.0503 201.94 95.4903 203.14 93.6203C202.72 95.0103 202.57 95.1003 201.47 95.0303C200.874 94.93 200.266 94.93 199.67 95.0303C198.49 95.4203 199.25 96.0303 199.5 96.5503L201.61 95.8403L201.73 96.1303L200.28 97.2203Z" fill="#1D5DFA" fill-opacity="0.3"/>
<path d="M91.73 34.8303V32.8303C92.24 32.3403 92.73 31.9903 93.06 31.5603C93.75 30.7703 94.47 31.3203 95.06 31.5603C95.65 31.8003 95.57 32.3703 94.96 32.7403C94.86 32.8003 94.82 33.0103 94.82 33.1603C94.82 33.6503 94.95 34.4503 94.73 34.5703C93.8571 35.0054 92.938 35.3408 91.99 35.5703C91.82 35.5703 91.54 35.2303 91.32 35.0503L91.73 34.8303Z" fill="#1D5DFA" fill-opacity="0.3"/>
<path d="M19.51 13.3503L18.64 14.0603L19.9 14.6203C20.28 15.9703 18.9 15.9303 18.36 16.4603C18.26 16.5503 17.65 16.0703 17.27 15.8503L15.07 14.5803L15.18 14.1803L17.09 14.5103L16.09 13.4503C17.28 12.5403 18.63 12.4803 19.51 13.3503Z" fill="#1D5DFA" fill-opacity="0.3"/>
<path d="M218.75 38.2203L217.66 38.2803C217.78 39.4103 217.9 40.5103 218.02 41.5303H216.93C217.64 38.5303 215.99 35.3203 217.7 31.9903C218.07 34.2203 218.4 36.2203 218.75 38.2203Z" fill="#1D5DFA" fill-opacity="0.3"/>
<path d="M187.12 100.88C187.864 101.137 188.626 101.338 189.4 101.48C190.64 101.62 191.9 101.62 193.16 101.68C193.466 101.657 193.77 101.742 194.02 101.92L193.28 102.31L195.22 103.1V103.39C194.22 103.33 193.22 103.39 192.31 103.2C190.805 102.982 189.315 102.668 187.85 102.26C187.704 102.225 187.567 102.157 187.451 102.062C187.334 101.967 187.241 101.846 187.177 101.71C187.114 101.573 187.082 101.424 187.084 101.273C187.086 101.123 187.123 100.975 187.19 100.84L187.12 100.88Z" fill="#1D5DFA" fill-opacity="0.3"/>
<path d="M216.2 46.1103L215.62 47.4203C215.09 45.7903 215.33 45.2603 216.43 45.2203L216.82 42.4803C217.82 43.0803 218.05 44.6903 219.57 44.1703L219.82 45.3203L217.71 46.5403L216.2 46.1103Z" fill="#1D5DFA" fill-opacity="0.3"/>
<path d="M215.62 8.4303C214.95 8.39828 214.282 8.32817 213.62 8.2203C213.4 8.2203 213.08 7.7203 213.13 7.5303C213.18 7.3403 213.53 7.06031 213.79 6.88031C213.861 6.82743 213.942 6.79025 214.028 6.77128C214.114 6.75231 214.204 6.75198 214.29 6.77031C215.78 7.34031 217.29 6.77031 218.77 6.88031C219.05 6.88031 219.32 7.2503 219.59 7.4403C219.35 7.6703 219.13 8.0603 218.85 8.1003C217.78 8.2703 216.71 8.3303 215.62 8.4303Z" fill="#1D5DFA" fill-opacity="0.3"/>
<path d="M15.66 10.2203L15.57 9.4203L17.08 10.2203L16.71 9.3503C17.3007 9.27113 17.8993 9.27113 18.49 9.3503C18.72 9.3503 18.98 10.0203 18.93 10.3503C18.88 10.6803 18.59 11.5203 18.3 11.5703C17.84 11.6503 17.3 11.2703 16.8 11.1103C16.45 11.0003 16.09 10.9503 15.74 10.8603C15.3645 10.7858 14.9987 10.6683 14.65 10.5103C14.2969 10.299 13.9624 10.0581 13.65 9.7903C13.81 9.6103 14.05 9.2703 14.1 9.3003C14.4847 9.50625 14.8496 9.74727 15.19 10.0203C15.2733 10.1066 15.344 10.2042 15.4 10.3103L15.66 10.2203Z" fill="#1D5DFA" fill-opacity="0.3"/>
<path d="M29.94 75.4803C30.3262 74.8051 30.9472 74.2954 31.6847 74.0483C32.4223 73.8012 33.225 73.834 33.94 74.1403C35.52 74.9303 37.05 75.8203 38.79 76.7703L36.39 77.0403C35.86 76.4203 35.54 75.7703 35.02 75.5103C34.0902 74.9948 33.0731 74.6558 32.02 74.5103C31.41 74.4603 30.73 75.0903 29.94 75.4803Z" fill="#1D5DFA" fill-opacity="0.3"/>
<path d="M199.1 78.0203C200.89 78.5503 201.19 79.3403 200.5 80.3903C199.81 81.4403 200.08 81.8903 201.33 82.1403C201.703 82.2426 202.071 82.3661 202.43 82.5103L202 83.4403C201.18 82.6603 199.82 82.8303 199 81.7403C198.09 80.3603 199.98 79.4803 199.1 78.0203Z" fill="#1D5DFA" fill-opacity="0.3"/>
<path d="M24.54 13.0203C24.52 13.2475 24.455 13.4684 24.3488 13.6702C24.2427 13.8721 24.0974 14.0507 23.9215 14.1959C23.7456 14.3411 23.5427 14.4498 23.3244 14.5158C23.1061 14.5818 22.8768 14.6037 22.65 14.5803C22.48 14.5803 22.18 14.6503 22.17 14.7203C22.01 15.7203 21.26 15.3903 21.05 14.9903C20.84 14.5903 20.6 13.5203 20.89 13.1703C21.4388 12.7879 22.1032 12.6076 22.77 12.6603C23.3727 12.7059 23.9674 12.8268 24.54 13.0203Z" fill="#1D5DFA" fill-opacity="0.3"/>
<path d="M203.37 89.0103L203.55 89.9503L203.19 90.1703L201.77 88.3303L200.69 88.5503L200.52 88.2703L203.9 86.3703L204.13 89.0103H203.37Z" fill="#1D5DFA" fill-opacity="0.3"/>
<path d="M180.57 1.80032L175 3.09032C175.06 2.72032 175 2.24032 175.19 2.09032C176.84 1.04032 178.6 0.530319 180.57 1.80032Z" fill="#1D5DFA" fill-opacity="0.3"/>
<path d="M-0.600006 9.82031C0.244078 9.29427 1.13046 8.83936 2.04999 8.46031C2.9582 8.22871 3.88517 8.07812 4.81999 8.01031L5.03999 8.46031C4.60973 8.8864 4.15209 9.28391 3.66999 9.65031C3.59999 9.65031 3.21999 9.32031 2.96999 9.14031C2.07999 10.2203 -0.160006 10.6503 -0.600006 9.82031Z" fill="#1D5DFA" fill-opacity="0.3"/>
<path d="M38.57 78.1203L40.57 78.3003L39.57 77.1503C41.47 76.6403 43.57 77.3703 43.46 78.5503C41.81 78.4103 40.12 79.2203 38.57 78.1203Z" fill="#1D5DFA" fill-opacity="0.3"/>
<path d="M32.8 28.0503C32.09 28.0503 31.46 28.3103 31.21 28.0503C30.5 27.4403 30.04 27.9403 29.42 28.1403C28.7566 28.2345 28.0833 28.2345 27.42 28.1403C28.77 26.0003 29.14 25.8703 30.82 26.8303L31.16 27.0203L32.8 28.0503Z" fill="#1D5DFA" fill-opacity="0.3"/>
<path d="M182.43 2.22031L182.07 3.51031C179.36 3.93031 178.62 3.8303 177.25 2.6703L182.43 2.22031Z" fill="#1D5DFA" fill-opacity="0.3"/>
<path d="M122.1 2.8503C120.802 2.98961 119.496 3.04972 118.19 3.0303C117.218 2.87143 116.276 2.561 115.4 2.11031H122.1V2.8503Z" fill="#1D5DFA" fill-opacity="0.3"/>
<path d="M17.78 7.69031L13.38 6.8103L14.38 6.38031L12.94 5.9903V5.5603C13.5334 5.60343 14.1241 5.67686 14.71 5.7803C15.2941 5.89223 15.8619 6.07701 16.4 6.33031C16.9466 6.6257 17.4712 6.95989 17.97 7.33031L17.78 7.69031Z" fill="#1D5DFA" fill-opacity="0.3"/>
<path d="M186.86 4.33031L181.96 4.72031L181.76 4.51031C182.56 4.04031 183.33 3.28032 184.17 3.20032C185.139 3.27679 186.087 3.52392 186.97 3.93031L186.86 4.33031Z" fill="#1D5DFA" fill-opacity="0.3"/>
<path d="M166.17 86.2203C166.686 86.9673 167.131 87.7607 167.5 88.5903C167.6 88.8603 167.09 89.5903 166.71 89.7303C165.99 90.0103 165.71 89.5003 165.77 88.8003C165.83 88.1003 165.77 87.2003 165.77 86.4003L166.17 86.2203Z" fill="#1D5DFA" fill-opacity="0.3"/>
<path d="M220.61 136.1L219.33 133.3C220.085 133.23 220.845 133.23 221.6 133.3C221.83 133.3 222.16 134.11 222.05 134.36C221.645 134.998 221.161 135.583 220.61 136.1Z" fill="#1D5DFA" fill-opacity="0.3"/>
<path d="M207.48 56.0903C208.9 57.2503 208.82 58.6303 207.29 59.4703L207.38 57.4703L206.79 57.1303L207.48 56.0903Z" fill="#1D5DFA" fill-opacity="0.3"/>
<path d="M145.37 1.12032L148.69 0.0103149L148.85 0.250313C148.55 0.670313 148.31 1.38031 147.94 1.46031C147.058 1.57558 146.166 1.5957 145.28 1.52032L145.37 1.12032Z" fill="#1D5DFA" fill-opacity="0.3"/>
<path d="M106.91 48.0403L107.77 47.6903C107.87 47.9403 108.08 48.2203 108.01 48.3703C107.71 49.0103 108.39 50.2103 106.91 50.2803V48.0403Z" fill="#1D5DFA" fill-opacity="0.3"/>
<path d="M112.28 52.9303L110.11 51.6203L110.18 51.3403H112.55L112.28 52.9303Z" fill="#1D5DFA" fill-opacity="0.3"/>
<path d="M32.17 13.0903L35.43 13.7103L35.28 14.2203C34.28 13.8503 32.86 15.3203 32.17 13.0903Z" fill="#1D5DFA" fill-opacity="0.3"/>
<path d="M18.28 6.1403C19.34 6.3503 20.06 6.4703 20.78 6.6403C20.8425 6.68984 20.8918 6.75418 20.9232 6.82751C20.9546 6.90085 20.9673 6.98085 20.96 7.0603C20.9243 7.15083 20.8704 7.23305 20.8016 7.30186C20.7327 7.37067 20.6505 7.4246 20.56 7.4603C19.59 7.7703 18.91 7.4103 18.28 6.1403Z" fill="#1D5DFA" fill-opacity="0.3"/>
<path d="M200.64 71.8703L199.58 75.0403C198.7 73.6303 198.92 72.7903 200.64 71.8703Z" fill="#1D5DFA" fill-opacity="0.3"/>
<path d="M222.51 100.47C223.052 100.566 223.608 100.566 224.15 100.47C224.59 100.29 224.89 99.7503 225.54 99.4703C225.351 99.8843 225.113 100.274 224.83 100.63C224.684 100.804 224.499 100.94 224.291 101.029C224.082 101.117 223.855 101.155 223.629 101.139C223.403 101.124 223.184 101.055 222.99 100.939C222.795 100.823 222.631 100.662 222.51 100.47Z" fill="#1D5DFA" fill-opacity="0.3"/>
<path d="M19.82 11.2203L21.96 10.5103L22.15 11.8503C21.7104 11.8753 21.2697 11.8753 20.83 11.8503C20.4883 11.772 20.1537 11.665 19.83 11.5303L19.82 11.2203Z" fill="#1D5DFA" fill-opacity="0.3"/>
<path d="M204.76 103.22L201.44 105.48C202.13 103.74 203.03 103.12 204.76 103.22Z" fill="#1D5DFA" fill-opacity="0.3"/>
<path d="M18.84 21.3803L20.66 22.4703L20.59 22.7403L17.68 22.4903L18.84 21.3803Z" fill="#1D5DFA" fill-opacity="0.3"/>
<path d="M19.67 8.7403L22.33 8.9803C21.33 10.1703 20.52 9.4303 19.64 9.0803L19.67 8.7403Z" fill="#1D5DFA" fill-opacity="0.3"/>
<path d="M6.60001 7.6703L9.28001 7.22031C8.82001 8.47031 7.90001 8.6603 6.60001 7.6703Z" fill="#1D5DFA" fill-opacity="0.3"/>
<path d="M210.64 55.5403C211.38 57.2603 209.38 56.5403 209.37 57.4503C208.68 56.0903 210.08 56.2203 210.64 55.5403Z" fill="#1D5DFA" fill-opacity="0.3"/>
<path d="M207.82 98.7603H205.28C205.4 98.5003 205.49 98.0303 205.62 98.0203C206.47 97.9603 207.39 97.7803 207.82 98.7603Z" fill="#1D5DFA" fill-opacity="0.3"/>
<path d="M148.89 1.33031L150.89 1.16031L150.96 1.77031L148.96 2.02031L148.89 1.33031Z" fill="#1D5DFA" fill-opacity="0.3"/>
</g>
<defs>
<filter id="filter0_i_70_103" x="-36" y="0" width="292.95" height="150.949" filterUnits="userSpaceOnUse" color-interpolation-filters="sRGB">
<feFlood flood-opacity="0" result="BackgroundImageFix"/>
<feBlend mode="normal" in="SourceGraphic" in2="BackgroundImageFix" result="shape"/>
<feColorMatrix in="SourceAlpha" type="matrix" values="0 0 0 0 0 0 0 0 0 0 0 0 0 0 0 0 0 0 127 0" result="hardAlpha"/>
<feOffset dy="4"/>
<feGaussianBlur stdDeviation="2"/>
<feComposite in2="hardAlpha" operator="arithmetic" k2="-1" k3="1"/>
<feColorMatrix type="matrix" values="0 0 0 0 0 0 0 0 0 0 0 0 0 0 0 0 0 0 0.25 0"/>
<feBlend mode="normal" in2="shape" result="effect1_innerShadow_70_103"/>
</filter>
</defs>
</svg>
