<svg width="17" height="14" viewBox="0 0 17 14" fill="none" xmlns="http://www.w3.org/2000/svg">
<path d="M8.5 10.4876C7.8237 10.4876 7.1751 10.2327 6.69688 9.77877C6.21866 9.32489 5.95 8.7093 5.95 8.06742C5.95 7.16386 6.4685 6.37326 7.225 5.96182L15.4785 1.42793L10.778 9.15652C10.353 9.94712 9.4945 10.4876 8.5 10.4876ZM8.5 0C10.0385 0 11.475 0.403371 12.7245 1.0649L10.9395 2.04106C10.2 1.76676 9.35 1.61348 8.5 1.61348C6.69653 1.61348 4.96693 2.29345 3.69168 3.5038C2.41643 4.71414 1.7 6.35573 1.7 8.06742C1.7 9.85031 2.4565 11.4638 3.689 12.6255H3.6975C4.029 12.9401 4.029 13.4484 3.6975 13.763C3.366 14.0776 2.822 14.0776 2.4905 13.7711C1.69998 13.0229 1.07301 12.1339 0.645609 11.1551C0.218209 10.1763 -0.00119488 9.12696 4.89404e-06 8.06742C4.89404e-06 5.9278 0.895538 3.87583 2.4896 2.36289C4.08366 0.849957 6.24566 0 8.5 0ZM17 8.06742C17 10.294 16.048 12.3109 14.5095 13.7711C14.178 14.0776 13.6425 14.0776 13.311 13.763C13.2322 13.6884 13.1697 13.5997 13.127 13.5021C13.0844 13.4045 13.0624 13.2999 13.0624 13.1943C13.0624 13.0886 13.0844 12.984 13.127 12.8864C13.1697 12.7888 13.2322 12.7001 13.311 12.6255C13.9431 12.028 14.4444 11.3176 14.7858 10.5352C15.1271 9.75292 15.3019 8.91418 15.3 8.06742C15.3 7.26067 15.1385 6.45393 14.841 5.72787L15.8695 4.03371C16.575 5.24382 17 6.59915 17 8.06742Z" fill="white"/>
</svg>
