<svg width="19" height="16" viewBox="0 0 19 16" fill="none" xmlns="http://www.w3.org/2000/svg">
<path d="M18.9894 7.90286C18.608 6.11935 17.5372 4.49203 15.9436 3.27418C14.35 2.05633 12.3231 1.31626 10.1782 1.16914V0H8.82105V1.16914C6.67618 1.31626 4.64921 2.05633 3.05562 3.27418C1.46203 4.49203 0.391212 6.11935 0.00982061 7.90286C-0.0121415 8.01038 0.00290918 8.12095 0.053194 8.2215C0.103479 8.32206 0.186896 8.40838 0.293586 8.47028C0.400276 8.53218 0.525779 8.56707 0.655263 8.57081C0.784746 8.57456 0.912798 8.54701 1.02428 8.49143C1.52295 8.19962 2.10769 8.02955 2.71392 8C3.29012 8.01175 3.85262 8.15034 4.34547 8.40197C4.83833 8.6536 5.24437 9.0095 5.5232 9.43429C5.58792 9.51443 5.67492 9.58002 5.77664 9.62536C5.87835 9.6707 5.99169 9.6944 6.10677 9.6944C6.22186 9.6944 6.33519 9.6707 6.43691 9.62536C6.53862 9.58002 6.62563 9.51443 6.69034 9.43429C6.91794 9.09788 7.22406 8.80375 7.59024 8.56963C7.95643 8.33551 8.37511 8.16623 8.82105 8.072V13.4286C8.82105 13.8075 8.64232 14.1708 8.32418 14.4387C8.00604 14.7066 7.57455 14.8571 7.12463 14.8571C6.67471 14.8571 6.24321 14.7066 5.92507 14.4387C5.60693 14.1708 5.4282 13.8075 5.4282 13.4286V13.1429H4.07106V13.4286C4.07106 14.1106 4.39278 14.7646 4.96543 15.2468C5.53808 15.7291 6.31477 16 7.12463 16C7.93448 16 8.71117 15.7291 9.28382 15.2468C9.85648 14.7646 10.1782 14.1106 10.1782 13.4286V8.07143C10.6243 8.16579 11.043 8.33524 11.4092 8.56957C11.7754 8.80389 12.0814 9.09824 12.3089 9.43486C12.369 9.52013 12.4544 9.59076 12.5567 9.63983C12.659 9.68889 12.7747 9.71469 12.8925 9.71469C13.0102 9.71469 13.1259 9.68889 13.2282 9.63983C13.3306 9.59076 13.416 9.52013 13.476 9.43486C13.7548 9.00997 14.1608 8.65395 14.6536 8.40221C15.1465 8.15048 15.7091 8.01181 16.2853 8C16.8916 8.02955 17.4763 8.19962 17.975 8.49143C18.0865 8.54718 18.2146 8.57487 18.3442 8.57121C18.4738 8.56754 18.5994 8.53269 18.7062 8.47076C18.813 8.40883 18.8965 8.32243 18.9469 8.22179C18.9972 8.12114 19.0122 8.01046 18.9901 7.90286H18.9894ZM2.71392 6.85714C2.36885 6.85713 2.02551 6.89811 1.69403 6.97886C2.15467 5.89836 2.91919 4.92788 3.92222 4.15039C4.92525 3.3729 6.13696 2.81153 7.45373 2.51429C6.10865 3.97458 5.3812 5.77133 5.38681 7.61943C4.61798 7.12734 3.67961 6.85973 2.71392 6.85714ZM9.49962 6.85714C8.49916 6.86103 7.52948 7.14892 6.74734 7.67429C6.77245 6.40571 7.15991 3.96571 9.49962 2.43086C11.8271 3.96057 12.22 6.40229 12.2492 7.67257C11.4675 7.14831 10.4989 6.86106 9.49962 6.85714ZM16.2853 6.85714C15.3197 6.85957 14.3814 7.12698 13.6124 7.61886C13.618 5.77076 12.8906 3.97401 11.5455 2.51371C12.8624 2.81102 14.0741 3.37247 15.0771 4.15007C16.0802 4.92766 16.8447 5.89826 17.3052 6.97886C16.9737 6.89811 16.6304 6.85713 16.2853 6.85714Z" fill="#FFFAFA"/>
</svg>
