<svg width="103" height="117" viewBox="0 0 103 117" fill="none" xmlns="http://www.w3.org/2000/svg">
<path fill-rule="evenodd" clip-rule="evenodd" d="M51.5 0C46.4544 0 38.0231 1.93781 30.089 4.095C21.9721 6.28875 13.7894 8.88469 8.97782 10.4569C6.96609 11.1212 5.18257 12.3396 3.83214 13.972C2.48171 15.6044 1.61916 17.5847 1.34357 19.6852C-3.01468 52.4233 7.09851 76.6862 19.3689 92.7371C24.5723 99.6033 30.7766 105.65 37.7744 110.675C40.5971 112.671 43.2149 114.199 45.4379 115.245C47.4854 116.21 49.6865 117 51.5 117C53.3135 117 55.5073 116.21 57.5621 115.245C60.242 113.942 62.8058 112.413 65.2256 110.675C72.2236 105.65 78.4279 99.6034 83.6311 92.7371C95.9015 76.6862 106.015 52.4233 101.656 19.6852C101.381 17.5836 100.519 15.6022 99.1686 13.9686C97.8183 12.3349 96.0345 11.1152 94.0222 10.4496C87.0373 8.15938 79.9982 6.03814 72.911 4.08769C64.977 1.94512 56.5456 0 51.5 0ZM51.5 36.5625C54.0904 36.5586 56.5985 37.4717 58.5802 39.1399C60.5619 40.8081 61.8893 43.1238 62.3272 45.6769C62.7651 48.23 62.2854 50.8557 60.9729 53.0889C59.6604 55.3222 57.5998 57.0188 55.1563 57.8784L57.9716 72.4303C58.074 72.9596 58.0581 73.505 57.9251 74.0274C57.792 74.5498 57.5451 75.0363 57.202 75.4521C56.8588 75.8679 56.428 76.2027 55.9403 76.4325C55.4527 76.6623 54.9202 76.7814 54.3811 76.7812H48.6189C48.0804 76.7803 47.5488 76.6604 47.062 76.4302C46.5752 76.1999 46.1453 75.865 45.803 75.4493C45.4607 75.0336 45.2144 74.5475 45.0818 74.0256C44.9492 73.5037 44.9334 72.959 45.0358 72.4303L47.8438 57.8784C45.4002 57.0188 43.3396 55.3222 42.0271 53.0889C40.7147 50.8557 40.2349 48.23 40.6728 45.6769C41.1107 43.1238 42.4381 40.8081 44.4198 39.1399C46.4015 37.4717 48.9096 36.5586 51.5 36.5625Z" fill="#1D5DFA"/>
</svg>
